<svg width="251" height="50" viewBox="0 0 251 50" fill="none" xmlns="http://www.w3.org/2000/svg">
<path d="M27.3328 9.51505C24.783 7.26505 21.297 6.17505 17.0241 6.17505H1.21729V48.835H17.0539C21.4563 48.835 24.9822 47.5451 27.4623 44.8951C29.9324 42.2751 31.1575 38.795 31.1575 34.585V20.705C31.1575 15.615 29.9324 11.825 27.3328 9.50505M27.3029 20.765V34.585C27.3029 37.835 26.4563 40.375 24.8129 42.355C23.2193 44.245 20.5699 45.2551 16.6655 45.2551H5.00215V9.68505H16.6755C20.4304 9.68505 23.0898 10.555 24.7531 12.165C26.3966 13.725 27.3129 16.565 27.3129 20.775" fill="#4C4948"/>
<path d="M58.8963 20.225C57.3226 18.675 55.2608 17.905 52.8803 17.905H48.4182C47.6712 17.905 46.9142 17.915 46.1572 17.955C45.4003 17.995 44.6931 18.045 44.0357 18.075C43.3883 18.165 42.6911 18.215 41.9042 18.255L41.227 18.295V21.425H52.462C54.0656 21.425 55.2309 21.865 56.1074 22.725C56.9441 23.545 57.4222 24.935 57.4222 27.045V30.175H48.478C45.0118 30.175 42.2429 31.085 40.3505 32.965C38.478 34.805 37.5317 37.115 37.5317 39.775C37.5317 42.435 38.4481 44.885 40.2907 46.675C42.1035 48.445 44.3744 49.365 46.9441 49.365H46.974C47.4919 49.365 48.3684 49.345 49.6234 49.305C50.8784 49.265 52.1433 49.215 53.4381 49.135C54.7031 49.045 56.3266 48.955 58.2987 48.845H61.2768V26.825C61.2768 24.065 60.5098 21.805 58.8963 20.245M57.4321 33.615V45.475C55.8186 45.575 54.464 45.635 53.3784 45.665C52.0935 45.745 50.8684 45.795 49.7031 45.835C48.5278 45.875 47.711 45.895 47.2628 45.895C45.6891 45.895 44.3345 45.365 43.0696 44.265C41.9142 43.245 41.3266 41.845 41.3066 39.875C41.3066 39.825 41.3066 39.765 41.3066 39.705C41.3166 37.845 41.9242 36.455 43.209 35.335C44.454 34.235 46.3764 33.615 49.0457 33.615H57.4122H57.4321Z" fill="#4C4948"/>
<path d="M70.6296 48.835H74.534V18.295H70.6296V48.835ZM74.534 11.205V6.16504H70.5698V14.735L74.534 11.205Z" fill="#4C4948"/>
<path d="M103.508 34.075C101.845 32.645 99.5835 31.785 96.7549 31.415L93.727 31.125C91.0178 30.825 89.1353 30.285 88.1792 29.655C87.3126 29.065 86.8047 28.025 86.7947 26.215C86.8146 24.305 87.4023 23.245 88.5875 22.605C89.9023 21.905 91.6652 21.515 93.8963 21.475H104.414V18.275H103.727C102.153 18.225 100.839 18.165 99.7728 18.085C98.6971 18.035 97.6314 18.005 96.5158 17.965C95.3903 17.935 94.5138 17.915 93.8963 17.915C92.4222 17.915 91.0377 18.065 89.7429 18.365C88.4282 18.665 87.2728 19.155 86.2768 19.825C85.2608 20.555 84.4441 21.455 83.8565 22.505C83.2489 23.605 82.96 24.915 82.96 26.395C82.9501 29.075 83.8764 31.205 85.7688 32.415C87.5616 33.565 89.9421 34.265 92.8903 34.575L95.729 34.875C97.9899 35.125 99.6035 35.735 100.59 36.615C101.586 37.475 102.074 38.625 102.074 40.255C102.054 42.455 101.356 43.705 99.9421 44.465C98.4083 45.255 96.3664 45.685 93.8266 45.685H83.9361V49.045L84.6134 49.065C86.1871 49.145 87.5019 49.205 88.5477 49.245C89.5835 49.285 90.6294 49.305 91.6453 49.335C92.6712 49.355 93.4282 49.355 93.9361 49.355C95.5497 49.355 97.0935 49.215 98.5377 48.915C99.9919 48.605 101.287 48.085 102.372 47.315C103.488 46.575 104.394 45.595 105.042 44.405C105.709 43.205 106.028 41.745 106.028 40.075C106.048 37.605 105.191 35.525 103.498 34.075" fill="#4C4948"/>
<path d="M137.133 23.715C136.536 22.475 135.759 21.415 134.793 20.535C133.827 19.695 132.741 19.055 131.536 18.595C130.331 18.135 129.086 17.915 127.841 17.915C126.964 17.915 125.918 18.115 124.673 18.465C123.428 18.815 122.233 19.205 121.058 19.645C120.141 19.985 119.066 20.405 117.851 20.885V6.16504H114.125V48.835H117.851V24.455C119.345 23.885 120.629 23.405 121.665 23.015C122.801 22.635 123.976 22.265 125.181 21.925C126.357 21.575 127.273 21.435 127.851 21.435C129.494 21.435 130.928 22.015 132.293 23.245C133.608 24.455 134.255 26.005 134.265 28.095V48.845H138.05V28.035C138.05 26.435 137.751 24.995 137.143 23.725" fill="#4C4948"/>
<path d="M147.343 48.835H151.247V18.295H147.343V48.835ZM151.257 11.205V6.16504H147.293V14.745L151.257 11.215V11.205Z" fill="#4C4948"/>
<path d="M184.823 23.715C184.235 22.475 183.458 21.415 182.502 20.535C181.536 19.695 180.44 19.055 179.235 18.595C178.03 18.135 176.785 17.915 175.54 17.915C174.664 17.915 173.618 18.115 172.363 18.465C171.138 18.815 169.942 19.205 168.767 19.645C167.841 19.985 166.765 20.405 165.55 20.885V18.295H161.815V48.835H165.55V24.455C167.054 23.885 168.319 23.405 169.375 23.005C170.5 22.635 171.675 22.265 172.881 21.925C174.056 21.575 174.972 21.425 175.55 21.435C177.183 21.435 178.628 22.015 179.992 23.245C181.307 24.455 181.944 26.005 181.954 28.095V48.845H185.739V28.035C185.739 26.435 185.44 24.995 184.833 23.725" fill="#4C4948"/>
<path d="M217.761 18.325H201.745V48.865H233.767L249.783 32.795H217.761V18.325Z" fill="#4C4948"/>
<path d="M217.761 0.64502L201.745 16.715H233.767V31.185H249.783V0.64502H217.761Z" fill="#4C4948"/>
</svg>
